<svg width="49" height="48" viewBox="0 0 49 48" fill="none" xmlns="http://www.w3.org/2000/svg">
<path fill-rule="evenodd" clip-rule="evenodd" d="M48.4014 0H25.7579H0.401367V48H25.7579H48.4014V0Z" fill="#0066CC"/>
<path fill-rule="evenodd" clip-rule="evenodd" d="M11.5985 19.2939C10.7152 19.2939 9.98802 19.5917 9.42067 20.1897C8.85332 20.7909 8.56934 21.54 8.56934 22.4428C8.56934 23.3456 8.85709 24.1018 9.4282 24.7107C9.99805 25.319 10.7246 25.625 11.6061 25.625C12.4856 25.625 13.2015 25.3254 13.7551 24.728C14.3049 24.1287 14.5839 23.3821 14.5839 22.4819C14.5839 21.5823 14.3049 20.8261 13.7551 20.214C13.2015 19.6006 12.4825 19.2939 11.5985 19.2939Z" fill="white"/>
<path d="M28.6126 29.3599H24.3914V36.8223H19.1903V11.1938H28.6126C34.693 11.1938 37.7333 14.1587 37.7333 20.0884C37.7333 23.0784 36.9544 25.3774 35.3966 26.9855C33.8639 28.5684 31.6025 29.3599 28.6126 29.3599ZM24.3914 24.9126H28.5749C31.1628 24.9126 32.4568 23.3045 32.4568 20.0884C32.4568 18.5055 32.1428 17.3748 31.5146 16.6964C30.8865 15.9929 29.9066 15.6411 28.5749 15.6411H24.3914V24.9126Z" fill="white"/>
</svg>
